<?xml version="1.0" encoding="utf-8"?>
<!-- Generator: Adobe Illustrator 16.0.0, SVG Export Plug-In . SVG Version: 6.00 Build 0)  -->
<!DOCTYPE svg PUBLIC "-//W3C//DTD SVG 1.1//EN" "http://www.w3.org/Graphics/SVG/1.1/DTD/svg11.dtd">
<svg version="1.1" id="Layer_1" xmlns="http://www.w3.org/2000/svg" xmlns:xlink="http://www.w3.org/1999/xlink" x="0px" y="0px"
	 width="517px" height="44.5px" viewBox="0 0 517 44.5" enable-background="new 0 0 517 44.5" xml:space="preserve">
<g>
	<path fill="#F39200" d="M15.0556641,42.2265625L3.5317383,3.8144531h8.6279297l9.1010742,32.4433594h0.1772461
		l9.8686523-32.4433594h5.1416016L24.097168,42.2265625H15.0556641z"/>
	<path fill="#F39200" d="M42.800293,37.5878906c-3.0141602-3.5253906-4.5209961-8.3623047-4.5209961-14.5087891
		c0-6.1455078,1.5068359-10.9912109,4.5209961-14.5371094c3.0136719-3.5458984,7.2983398-5.3183594,12.8530273-5.3183594
		c5.59375,0,9.9179688,1.7832031,12.9716797,5.3476563c3.0527344,3.5664063,4.5800781,8.4023438,4.5800781,14.5078125
		c0,6.1074219-1.5273438,10.9335938-4.5800781,14.4785156c-3.0537109,3.5458984-7.3779297,5.3193359-12.9716797,5.3193359
		C50.0986328,42.8769531,45.8139648,41.1142578,42.800293,37.5878906z M62.1835938,34.9873047
		c1.3193359-2.4619141,1.9794922-6.4316406,1.9794922-11.9082031c0-5.4365234-0.6704102-9.3955078-2.0092773-11.8779297
		c-1.3398438-2.4814453-3.5068359-3.7226563-6.5004883-3.7226563c-2.9545898,0-5.0922852,1.2412109-6.4116211,3.7226563
		c-1.3208008,2.4824219-1.9799805,6.4414063-1.9799805,11.8779297c0,5.4765625,0.6503906,9.4462891,1.9501953,11.9082031
		c1.300293,2.4628906,3.4472656,3.6933594,6.4414063,3.6933594C58.6865234,38.6806641,60.8632813,37.4501953,62.1835938,34.9873047z
		"/>
	<path fill="#F39200" d="M79.8823242,42.2265625V3.8144531h8.4506836l16.1333008,26.0615234h0.1181641l-0.4135742-2.6601563
		V3.8144531h5.0820313v38.4121094h-6.3823242L84.6098633,13.3876953h-0.1181641l0.4731445,3.4277344v25.4111328H79.8823242z"/>
	<path fill="#F39200" d="M118.3530273,42.2265625V3.8144531h8.1552734v17.7880859l3.4868164-2.5410156l11.2871094-15.2470703
		h5.6733398l-11.6420898,15.0097656l14.3603516,23.4023438h-10.3417969l-10.2827148-17.2558594l-2.5410156,1.7724609v15.4833984
		H118.3530273z"/>
	<path fill="#231B4D" d="M160.015625,42.2265625V8.0693359h-10.3417969V3.8144531h28.8388672v4.2548828h-10.2827148v34.1572266
		H160.015625z"/>
	<path fill="#231B4D" d="M191.2758789,42.2265625L181.0522461,3.8144531h8.6870117l7.0917969,29.0751953h0.1181641
		l7.8598633-29.0751953h6.5595703l8.0957031,28.8974609h0.1777344l6.6777344-28.8974609h5.2001953l-10.0463867,38.4121094
		h-6.9731445l-8.0371094-28.3662109h-0.1181641l-7.9780273,28.3662109H191.2758789z"/>
	<path fill="#231B4D" d="M236.6606445,42.2265625V3.8144531h23.0473633v4.2548828h-14.8916016v12.6464844h13.1191406v4.1367188
		h-13.1191406v13.1191406h15.71875v4.2548828H236.6606445z"/>
	<path fill="#231B4D" d="M267.6269531,42.2265625V3.8144531h23.046875v4.2548828h-14.8916016v12.6464844h13.1191406v4.1367188
		h-13.1191406v13.1191406h15.71875v4.2548828H267.6269531z"/>
	<path fill="#231B4D" d="M304.796875,42.2265625L294.5732422,3.8144531h8.6865234l7.0917969,29.0751953h0.1181641
		l7.859375-29.0751953h6.5595703l8.0966797,28.8974609h0.1767578l6.6777344-28.8974609h5.2011719l-10.046875,38.4121094h-6.9726563
		l-8.0371094-28.3662109h-0.1181641l-7.9785156,28.3662109H304.796875z"/>
	<path fill="#231B4D" d="M350.1816406,42.2265625V3.8144531h8.1552734v38.4121094H350.1816406z"/>
	<path fill="#231B4D" d="M367.4970703,42.2265625V3.8144531h23.046875v4.2548828h-14.8916016v12.6464844h13.1191406v4.1367188
		h-13.1191406v13.1191406h15.71875v4.2548828H367.4970703z"/>
	<path fill="#231B4D" d="M398.4619141,42.2265625V3.8144531h8.1552734v34.1572266h14.8916016v4.2548828H398.4619141z"/>
	<path fill="#231B4D" d="M426.7685547,42.2265625V3.8144531h23.046875v4.2548828h-14.8916016v12.6464844h13.1191406v4.1367188
		h-13.1191406v13.1191406h15.71875v4.2548828H426.7685547z"/>
	<path fill="#231B4D" d="M457.7333984,3.8144531h11.8183594c4.3339844,0,7.7216797,1.0546875,10.1650391,3.1611328
		c2.4423828,2.1083984,3.6640625,5.0732422,3.6640625,8.8945313c0,2.4814453-0.6113281,4.6386719-1.8320313,6.4707031
		c-1.2216797,1.8320313-2.8173828,3.2607422-4.7871094,4.2841797l8.8642578,15.6015625h-9.3964844l-7.2089844-13.9462891h-3.1318359
		v13.9462891h-8.1552734V3.8144531z M468.9023438,24.3798828c1.4570313,0,2.5898438-0.2460938,3.3974609-0.7392578
		c0.8076172-0.4921875,1.3886719-1.3291016,1.7431641-2.5117188c0.3554688-1.1816406,0.5322266-2.8154297,0.5322266-4.9042969
		c0-3.0732422-0.4433594-5.2685547-1.3291016-6.5888672c-0.8867188-1.3203125-2.3935547-1.9804688-4.5214844-1.9804688h-2.8359375
		v16.7246094H468.9023438z"/>
	<path fill="#231B4D" d="M494.3125,41.8427734c-1.734375-0.6894531-3.0244141-1.4277344-3.8710938-2.2167969
		c-0.8476563-0.7871094-1.2705078-1.2597656-1.2705078-1.4179688l2.2451172-3.4277344
		c0,0.0800781,0.3847656,0.4433594,1.1523438,1.09375c0.7685547,0.6494141,1.8125,1.2509766,3.1328125,1.8017578
		c1.3193359,0.5527344,2.8457031,0.828125,4.5800781,0.828125c1.8505859,0,3.2890625-0.4921875,4.3134766-1.4775391
		c1.0244141-0.984375,1.5361328-2.2841797,1.5361328-3.9003906c0-1.0244141-0.2753906-1.9208984-0.8271484-2.6894531
		c-0.5517578-0.7675781-1.2314453-1.4179688-2.0380859-1.9501953c-0.8085938-0.53125-1.9414063-1.2109375-3.3984375-2.0380859
		c-1.890625-0.984375-3.4482422-1.9296875-4.6689453-2.8369141c-1.2216797-0.9052734-2.265625-2.0878906-3.1318359-3.5458984
		c-0.8671875-1.4570313-1.2998047-3.25-1.2998047-5.3779297c0-2.3232422,0.53125-4.3525391,1.5957031-6.0859375
		c1.0634766-1.7333984,2.5410156-3.0634766,4.4316406-3.9892578c1.8916016-0.9257813,4.0380859-1.3886719,6.4414063-1.3886719
		c1.5751953,0,3.0634766,0.1972656,4.4619141,0.5908203c1.3984375,0.3945313,2.5800781,0.8369141,3.5458984,1.3291016
		c0.9648438,0.4931641,1.4482422,0.7597656,1.4482422,0.7978516l-0.9462891,4.0185547
		c-0.1972656-0.1181641-0.6796875-0.3837891-1.4472656-0.7978516c-0.7685547-0.4130859-1.7431641-0.8164063-2.9257813-1.2109375
		c-1.1816406-0.3935547-2.3837891-0.5908203-3.6044922-0.5908203c-1.4980469,0-2.6992188,0.4238281-3.6044922,1.2705078
		c-0.9072266,0.8476563-1.359375,2.0195313-1.359375,3.515625c0,1.6552734,0.53125,2.9755859,1.5957031,3.9599609
		c1.0634766,0.9853516,2.6972656,2.0683594,4.9042969,3.25c1.9697266,1.0634766,3.5458984,2.0292969,4.7275391,2.8955078
		c1.1826172,0.8671875,2.1962891,2.0390625,3.0439453,3.5166016c0.8466797,1.4775391,1.2705078,3.3193359,1.2705078,5.5253906
		c0,2.4033203-0.6015625,4.4716797-1.8027344,6.2050781c-1.2021484,1.734375-2.8271484,3.0634766-4.875,3.9892578
		c-2.0488281,0.9248047-4.3349609,1.3886719-6.8554688,1.3886719C498.2128906,42.8769531,496.0449219,42.53125,494.3125,41.8427734z
		"/>
</g>
</svg>
